<svg width="200" height="50" viewBox="0 0 260 262" fill="none" xmlns="http://www.w3.org/2000/svg">
  <path d="M87.1145 5.60551e-05H0V87.1146H87.1145V5.60551e-05Z" fill="#0CA36D"/>
  <path d="M261.353 87.1145V261.333H174.239V131.789C174.25 131.418 174.25 131.048 174.25 130.667C174.25 130.286 174.25 129.915 174.239 129.544C173.652 106.455 155.094 87.8148 132.026 87.1145C131.583 87.1039 131.13 87.094 130.676 87.094C130.223 87.094 129.77 87.1047 129.327 87.1145C112.232 87.6398 97.6184 98.0103 90.9553 112.737C88.6382 117.886 87.2788 123.561 87.1243 129.544V131.789C87.114 131.418 87.114 131.048 87.114 130.667V174.229H87.1243V261.333H0.00976562V174.229L87.114 87.1145C87.114 87.6501 87.114 88.1959 87.1243 88.7314V87.1145L174.229 5.40416e-06C222.343 5.40416e-06 261.343 39.0002 261.343 87.1145H261.353Z" fill="#0CA36D"/>
</svg>
